HIERARCHY
ROOT Hips
{
	OFFSET	0.00	0.00	0.00
	CHANNELS 6 Xposition Yposition Zposition Zrotation Xrotation Yrotation
	JOINT LeftUpLeg
	{
		OFFSET	 0.126116	-0.065224	 0.014019
		CHANNELS 3 Zrotation Xrotation Yrotation
		JOINT LeftLeg
		{
			OFFSET	 0.000000	 0.569914	 0.000000
			CHANNELS 3 Zrotation Xrotation Yrotation
			JOINT LeftFoot
			{
				OFFSET	 0.000000	 0.544423	 0.000000
				CHANNELS 3 Zrotation Xrotation Yrotation
				JOINT LeftToeBase
				{
					OFFSET	 0.000000	 0.207117	 0.000000
					CHANNELS 3 Zrotation Xrotation Yrotation
					End Site
					{
						OFFSET	 0.000000	 0.207117	 0.000000
					}
				}
			}
		}
	}
	JOINT RightUpLeg
	{
		OFFSET	-0.124023	-0.065224	 0.008373
		CHANNELS 3 Zrotation Xrotation Yrotation
		JOINT RightLeg
		{
			OFFSET	 0.000000	 0.570047	 0.000000
			CHANNELS 3 Zrotation Xrotation Yrotation
			JOINT RightFoot
			{
				OFFSET	 0.000000	 0.544354	 0.000000
				CHANNELS 3 Zrotation Xrotation Yrotation
				JOINT RightToeBase
				{
					OFFSET	 0.000000	 0.207540	 0.000000
					CHANNELS 3 Zrotation Xrotation Yrotation
					End Site
					{
						OFFSET	 0.000000	 0.207540	 0.000000
					}
				}
			}
		}
	}
	JOINT Spine
	{
		OFFSET	 0.000184	 0.117403	 0.007763
		CHANNELS 3 Zrotation Xrotation Yrotation
		JOINT Spine1
		{
			OFFSET	 0.000000	 0.137269	 0.000000
			CHANNELS 3 Zrotation Xrotation Yrotation
			JOINT Spine2
			{
				OFFSET	 0.000000	 0.156879	 0.000000
				CHANNELS 3 Zrotation Xrotation Yrotation
				JOINT LeftShoulder
				{
					OFFSET	 0.080501	 0.160143	 0.002496
					CHANNELS 3 Zrotation Xrotation Yrotation
					JOINT LeftArm
					{
						OFFSET	 0.000000	 0.164363	 0.000000
						CHANNELS 3 Zrotation Xrotation Yrotation
						JOINT LeftForeArm
						{
							OFFSET	 0.000000	 0.364576	 0.000000
							CHANNELS 3 Zrotation Xrotation Yrotation
							JOINT LeftHand
							{
								OFFSET	 0.000000	 0.360812	 0.000000
								CHANNELS 3 Zrotation Xrotation Yrotation
								JOINT LeftHandIndex1
								{
									OFFSET	 0.000000	 0.086006	 0.000000
									CHANNELS 3 Zrotation Xrotation Yrotation
									JOINT LeftHandIndex2
									{
										OFFSET	 0.000000	 0.047237	 0.000000
										CHANNELS 3 Zrotation Xrotation Yrotation
										JOINT LeftHandIndex3
										{
											OFFSET	-0.004284	 0.038165	 0.000551
											CHANNELS 3 Zrotation Xrotation Yrotation
											End Site
											{
												OFFSET	-0.004284	 0.038165	 0.000551
											}
										}
									}
								}
							}
						}
					}
				}
				JOINT Neck
				{
					OFFSET	 0.000000	 0.176489	 0.000000
					CHANNELS 3 Zrotation Xrotation Yrotation
					JOINT Head
					{
						OFFSET	 0.000000	 0.077941	 0.001747
						CHANNELS 3 Zrotation Xrotation Yrotation
						End Site
						{
							OFFSET	 0.000000	 0.077941	 0.001747
						}
					}
				}
				JOINT RightShoulder
				{
					OFFSET	-0.080363	 0.159706	-0.000306
					CHANNELS 3 Zrotation Xrotation Yrotation
					JOINT RightArm
					{
						OFFSET	 0.000000	 0.164196	 0.000000
						CHANNELS 3 Zrotation Xrotation Yrotation
						JOINT RightForeArm
						{
							OFFSET	 0.000000	 0.365611	 0.000000
							CHANNELS 3 Zrotation Xrotation Yrotation
							JOINT RightHand
							{
								OFFSET	 0.000000	 0.360648	 0.000000
								CHANNELS 3 Zrotation Xrotation Yrotation
								JOINT RightHandIndex1
								{
									OFFSET	 0.000000	 0.069977	 0.000000
									CHANNELS 3 Zrotation Xrotation Yrotation
									JOINT RightHandIndex2
									{
										OFFSET	 0.000000	 0.052305	 0.000000
										CHANNELS 3 Zrotation Xrotation Yrotation
										JOINT RightHandIndex3
										{
											OFFSET	 0.009002	 0.042196	 0.000782
											CHANNELS 3 Zrotation Xrotation Yrotation
											End Site
											{
												OFFSET	 0.009002	 0.042196	 0.000782
											}
										}
									}
								}
							}
						}
					}
				}
			}
		}
	}
}
MOTION
Frames:    8
Frame Time: 0.03333334
 0.000237	 1.271972	 0.075545	 0.420080	-0.007971	 179.992100	-176.160600	 2.391878	-13.760050	 2.718568	-12.619640	 0.043208	-5.676342	 70.808270	 4.850433	 1.292262	 28.425850	-2.713146	 176.950000	 1.811295	 13.837320	-2.081937	-10.020870	 0.083694	 5.006466	 68.871220	-4.613011	-1.288183	 28.361890	 2.710176	 0.001945	 2.564215	-11.341830	 2.135924	 4.367436	-5.121685	-1.947037	-5.508165	 14.800780	-101.478000	 1.740670	 90.353390	 1.912426	 63.245370	 1.002191	 2.709405	 4.630833	 0.324021	 7.574291	-1.583414	-36.321540	-6.580301	 5.266122	 0.000000	 0.000000	 0.000000	 0.000000	 0.000000	 0.000000	 0.000000	 0.089846	-3.783161	 0.005928	-0.018789	 0.586541	 3.669427	 101.796200	-0.213313	-89.955440	-8.387405	 66.222600	-0.710692	-3.296331	 4.274496	 2.360960	-18.639720	 11.968160	-28.381950	 15.208500	 5.323790	 0.000000	 0.000000	 0.000000	 0.000000	 0.000000	 0.000000	 0.000000
 0.000148	 1.273042	 0.090644	 0.454547	-0.010689	 179.991700	-175.738400	 2.915176	-17.007790	 2.880614	-13.345070	 0.079614	-5.672768	 70.824570	 4.865652	 1.292262	 28.425850	-2.713146	 176.723900	 2.344628	 17.095770	-1.983076	-9.554211	 0.100503	 4.411224	 67.726490	-4.366408	-1.288183	 28.361890	 2.710176	 0.210373	 2.070796	-14.435160	 1.968162	 6.028697	-5.006550	-1.670809	-7.666836	 14.207550	-101.478000	 1.740669	 90.353380	-0.272778	 62.468250	 3.001336	 3.847819	 4.646343	-2.073928	 9.964551	-1.709573	-38.540890	-6.580301	 5.266122	 0.000000	 0.000000	 0.000000	 0.000000	 0.000000	 0.000000	 0.000000	 0.089846	-3.783161	 0.005928	-0.011312	 0.370280	 3.499734	 101.796200	-0.213316	-89.955450	-2.239994	 61.935620	-6.318195	-9.508858	 11.761210	 5.532209	-19.253480	 9.307927	-25.367960	 15.208500	 5.323790	 0.000000	 0.000000	 0.000000	 0.000000	 0.000000	 0.000000	 0.000000
 0.000139	 1.274523	 0.110463	 0.460714	-0.016634	 179.992600	-175.283800	 2.847188	-21.272770	 2.767209	-12.837830	 0.053930	-5.256023	 70.117290	 4.669766	 1.292262	 28.425850	-2.713146	 176.469800	 2.817813	 21.369830	-1.764232	-8.516595	 0.134871	 3.437136	 66.061360	-4.033742	-1.288183	 28.361890	 2.710176	 0.434437	 1.397968	-20.537890	 1.648027	 8.197363	-4.572152	-1.240724	-10.542150	 12.648490	-101.478000	 1.740668	 90.353390	-3.102390	 61.413820	 5.588516	 6.213918	 4.678049	-7.052901	 13.544910	-1.589178	-42.340230	-6.580301	 5.266122	 0.000000	 0.000000	 0.000000	 0.000000	 0.000000	 0.000000	 0.000000	 0.089846	-3.783161	 0.005928	-0.003332	 0.124031	 3.078626	 101.796200	-0.213317	-89.955460	 3.198842	 55.193820	-10.948260	-20.513400	 22.806300	 13.888510	-20.080140	 4.567980	-18.631310	 15.208500	 5.323790	 0.000000	 0.000000	 0.000000	 0.000000	 0.000000	 0.000000	 0.000000
 0.000265	 1.275633	 0.124133	 0.418893	-0.024965	 179.997900	-175.144100	 2.308197	-24.211770	 2.471154	-11.503950	-0.008493	-4.741520	 69.138250	 4.438751	 1.292262	 28.425850	-2.713146	 176.339100	 2.964586	 24.310230	-1.538277	-7.439204	 0.166231	 2.637780	 64.773220	-3.804762	-1.288183	 28.361890	 2.710176	 0.483160	 0.946042	-25.704610	 1.347966	 9.631013	-4.019961	-0.915251	-12.490780	 10.925180	-101.478000	 1.740669	 90.353390	-4.984571	 60.678710	 7.319500	 8.393700	 4.700850	-11.639330	 16.330320	-1.151198	-45.162710	-6.580301	 5.266122	 0.000000	 0.000000	 0.000000	 0.000000	 0.000000	 0.000000	 0.000000	 0.089846	-3.783161	 0.005928	 0.000365	-0.015882	 2.631404	 101.796200	-0.213309	-89.955470	 5.255273	 50.287650	-12.323970	-30.298120	 30.193760	 23.160800	-20.676980	 0.332237	-12.182700	 15.208500	 5.323790	 0.000000	 0.000000	 0.000000	 0.000000	 0.000000	 0.000000	 0.000000
 0.000513	 1.276101	 0.128228	 0.327716	-0.030648	-179.998700	-175.236400	 1.948042	-25.093890	 2.291336	-10.687300	-0.043099	-4.519125	 68.630720	 4.346647	 1.292262	 28.425850	-2.713146	 176.240300	 3.003959	 25.188750	-1.467488	-7.100514	 0.175184	 2.379309	 64.389820	-3.737313	-1.288183	 28.361890	 2.710176	 0.415885	 0.531653	-31.585100	 0.947725	 11.052410	-3.081705	-0.563762	-14.466460	 8.243155	-101.478000	 1.740674	 90.353390	-6.952440	 60.375710	 9.174387	 11.281080	 4.731357	-17.705630	 19.572990	-0.558117	-47.755930	-6.580301	 5.266122	 0.000000	 0.000000	 0.000000	 0.000000	 0.000000	 0.000000	 0.000000	 0.089846	-3.783161	 0.005928	 0.002306	-0.134705	 1.961357	 101.796200	-0.213317	-89.955440	 6.319598	 44.958850	-12.406360	-44.873490	 37.779600	 38.236370	-20.688750	-6.610813	-4.058308	 15.208500	 5.323790	 0.000000	 0.000000	 0.000000	 0.000000	 0.000000	 0.000000	 0.000000
 0.000934	 1.276250	 0.128234	 0.185659	-0.032686	-179.996000	-175.423900	 1.702906	-25.100360	 2.179020	-10.174920	-0.063438	-4.449501	 68.361690	 4.323436	 1.292262	 28.425850	-2.713146	 176.069500	 3.165195	 25.189470	-1.536168	-7.429126	 0.166508	 2.411001	 64.562000	-3.742604	-1.288183	 28.361890	 2.710176	 0.253818	 0.290394	-36.442330	 0.473997	 12.111840	-1.748638	-0.253872	-15.969830	 4.669053	-101.478000	 1.740671	 90.353400	-8.539676	 60.314900	 10.702540	 14.569140	 4.753610	-24.612640	 22.679710	 0.730565	-49.160520	-6.580301	 5.266122	 0.000000	 0.000000	 0.000000	 0.000000	 0.000000	 0.000000	 0.000000	 0.089846	-3.783161	 0.005928	 0.002012	-0.208909	 1.103502	 101.796200	-0.213332	-89.955440	 5.589518	 39.973890	-10.436150	-63.446650	 42.830780	 58.536240	-19.641300	-16.172760	 4.825563	 15.208500	 5.323790	 0.000000	 0.000000	 0.000000	 0.000000	 0.000000	 0.000000	 0.000000
 0.002332	 1.275425	 0.128263	-0.390234	 0.005026	-179.992900	-176.024000	 1.391935	-25.127150	 2.056036	-9.611912	-0.084563	-4.456788	 68.055530	 4.366571	 1.292262	 28.425850	-2.713146	 175.226300	 4.393713	 25.205020	-2.086848	-10.044030	 0.082841	 2.773160	 65.916450	-3.869250	-1.288183	 28.361890	 2.710176	-1.339669	 2.676369	 35.638890	-2.248782	 2.967700	 5.097703	 2.143797	-3.683150	-14.923810	-101.478000	 1.740675	 90.353390	 1.673869	 56.952260	 0.999978	 9.771439	 4.645741	-14.596440	 16.866460	 11.836570	 71.588310	-6.580301	 5.266122	 0.000000	 0.000000	 0.000000	 0.000000	 0.000000	 0.000000	 0.000000	 0.089846	-3.783161	 0.005928	 0.025453	 0.785068	-3.713846	 101.796200	-0.213304	-89.955450	-103.544900	-4.276923	 62.613850	-10.349640	 5.008834	 9.891139	 17.092950	-44.039990	-110.873000	 15.208500	 5.323790	 0.000000	 0.000000	 0.000000	 0.000000	 0.000000	 0.000000	 0.000000
 0.002310	 1.275423	 0.128262	-0.381756	 0.004798	-179.993000	-176.013400	 1.403965	-25.126780	 2.061371	-9.636374	-0.083673	-4.459965	 68.068370	 4.367537	 1.292262	 28.425850	-2.713146	 175.236400	 4.384586	 25.205000	-2.082759	-10.024750	 0.083556	 2.771199	 65.906340	-3.868796	-1.288183	 28.361890	 2.710176	-0.157936	 2.990139	 11.805020	-2.200499	 2.951987	 4.979741	 2.097294	-3.667444	-14.577960	-101.478000	 1.740675	 90.353390	 1.825706	 57.538280	 1.038265	 2.787387	 4.524984	 2.585594	 16.254990	 12.098480	 82.066030	-6.580301	 5.266122	 0.000000	 0.000000	 0.000000	 0.000000	 0.000000	 0.000000	 0.000000	 0.089846	-3.783161	 0.005928	 0.025737	 0.812981	-3.626531	 101.796200	-0.213324	-89.955430	-78.698860	 6.104092	 66.719490	-34.086750	 40.007600	 6.651541	 49.492360	-54.871120	-87.514520	 15.208500	 5.323790	 0.000000	 0.000000	 0.000000	 0.000000	 0.000000	 0.000000	 0.000000
